<?xml version="1.0" encoding="iso-8859-1"?>
<!-- Generator: Adobe Illustrator 25.4.1, SVG Export Plug-In . SVG Version: 6.00 Build 0)  -->
<svg version="1.1" baseProfile="basic" id="Layer_1"
	 xmlns="http://www.w3.org/2000/svg" xmlns:xlink="http://www.w3.org/1999/xlink" x="0px" y="0px" viewBox="0 0 24 24"
	 xml:space="preserve">
<g id="two-tone_00000008866322007175147240000003982828190096828066_">
	<g>
		<path d="M9.461,12.311c0.048,0.152,0.104,0.263,0.168,0.311c0.064,0.056,0.16,0.08,0.303,0.08h0.686
			c0.144,0,0.255-0.024,0.319-0.08s0.112-0.16,0.152-0.319l1.229-5.14l1.237,5.148c0.032,0.16,0.088,0.263,0.152,0.319
			s0.168,0.08,0.319,0.08h0.686c0.136,0,0.239-0.032,0.303-0.08s0.12-0.152,0.168-0.311l1.924-6.17
			c0.032-0.088,0.048-0.152,0.056-0.2s0.016-0.088,0.016-0.128c0-0.136-0.072-0.2-0.2-0.2h-0.742c-0.144,0-0.247,0.032-0.311,0.08
			c-0.056,0.048-0.112,0.152-0.16,0.311l-1.381,5.348l-1.261-5.348c-0.032-0.152-0.088-0.263-0.152-0.311
			c-0.064-0.056-0.168-0.08-0.319-0.08h-0.639c-0.144,0-0.255,0.032-0.319,0.08s-0.112,0.152-0.152,0.311L10.3,11.297L8.959,6.013
			C8.911,5.861,8.863,5.75,8.799,5.702c-0.056-0.056-0.16-0.08-0.311-0.08H7.705c-0.128,0-0.192,0.072-0.192,0.2
			c0,0.056,0.024,0.16,0.072,0.319L9.461,12.311z"/>
		<path d="M18.042,12.454c0.208,0.12,0.519,0.223,0.918,0.319c0.399,0.096,0.814,0.144,1.229,0.144c0.407,0,0.782-0.056,1.141-0.168
			c0.343-0.104,0.639-0.247,0.886-0.447c0.247-0.192,0.439-0.431,0.583-0.702c0.136-0.271,0.208-0.583,0.208-0.926
			c0-0.415-0.12-0.79-0.367-1.117s-0.662-0.583-1.237-0.766L20.27,8.432c-0.423-0.136-0.718-0.287-0.878-0.439
			c-0.16-0.152-0.239-0.343-0.239-0.567c0-0.327,0.128-0.559,0.375-0.71c0.247-0.152,0.607-0.223,1.062-0.223
			c0.567,0,1.078,0.104,1.533,0.311C22.259,6.868,22.362,6.9,22.426,6.9c0.12,0,0.184-0.088,0.184-0.255V6.268
			c0-0.112-0.024-0.2-0.072-0.263c-0.048-0.072-0.128-0.136-0.239-0.2c-0.08-0.048-0.192-0.096-0.335-0.144
			c-0.144-0.048-0.295-0.088-0.455-0.128c-0.168-0.032-0.335-0.064-0.519-0.088c-0.176-0.024-0.359-0.032-0.535-0.032
			c-0.351,0-0.686,0.04-1.006,0.136c-0.319,0.096-0.591,0.231-0.83,0.415c-0.239,0.176-0.431,0.399-0.575,0.655
			C17.9,6.874,17.828,7.17,17.828,7.505c0,0.415,0.136,0.806,0.399,1.157c0.263,0.359,0.694,0.631,1.277,0.814l1.157,0.359
			c0.391,0.128,0.662,0.263,0.806,0.415c0.144,0.152,0.215,0.335,0.215,0.559c0,0.327-0.144,0.583-0.415,0.758
			c-0.271,0.176-0.663,0.263-1.165,0.263c-0.319,0-0.631-0.032-0.95-0.096c-0.311-0.064-0.607-0.16-0.878-0.279
			c-0.08-0.032-0.152-0.064-0.2-0.08s-0.096-0.024-0.144-0.024c-0.12,0-0.184,0.08-0.184,0.247v0.407
			c0,0.072,0.016,0.152,0.048,0.223C17.827,12.303,17.915,12.382,18.042,12.454z"/>
		<path d="M4.52,8.575c-0.295-0.04-0.575-0.064-0.846-0.064c-0.822,0-1.469,0.208-1.956,0.623C1.232,9.549,0.992,10.1,0.992,10.778
			c0,0.639,0.2,1.149,0.591,1.533c0.391,0.383,0.926,0.575,1.596,0.575c0.942,0,1.724-0.367,2.347-1.102
			c0.088,0.184,0.168,0.335,0.247,0.471c0.08,0.128,0.176,0.255,0.287,0.375c0.08,0.072,0.16,0.112,0.239,0.112
			c0.064,0,0.136-0.024,0.208-0.072l0.503-0.335c0.104-0.08,0.152-0.16,0.152-0.239c0-0.056-0.016-0.12-0.056-0.184
			c-0.112-0.208-0.192-0.399-0.255-0.575c-0.056-0.176-0.088-0.415-0.088-0.71H6.747V8.04c0-0.878-0.223-1.533-0.663-1.964
			c-0.446-0.43-1.14-0.646-2.09-0.646c-0.439,0-0.854,0.048-1.245,0.152C2.357,5.677,2.022,5.797,1.743,5.941
			C1.631,5.997,1.559,6.053,1.519,6.108c-0.04,0.056-0.056,0.152-0.056,0.28v0.391c0,0.168,0.056,0.247,0.168,0.247
			c0.032,0,0.072-0.008,0.128-0.024C1.814,6.986,1.91,6.955,2.038,6.899c0.279-0.112,0.567-0.2,0.862-0.271
			c0.295-0.072,0.583-0.104,0.862-0.104c0.615,0,1.046,0.12,1.301,0.367c0.247,0.247,0.375,0.67,0.375,1.277v0.583
			C5.119,8.679,4.816,8.615,4.52,8.575z M5.454,9.645V9.98c0,0.271-0.032,0.503-0.08,0.694c-0.048,0.192-0.144,0.359-0.271,0.511
			c-0.216,0.239-0.471,0.415-0.758,0.511c-0.287,0.096-0.559,0.144-0.822,0.144c-0.367,0-0.647-0.096-0.838-0.295
			c-0.2-0.192-0.295-0.471-0.295-0.846c0-0.399,0.128-0.702,0.391-0.918c0.263-0.216,0.654-0.32,1.189-0.32
			c0.247,0,0.495,0.016,0.75,0.048C4.975,9.541,5.223,9.589,5.454,9.645z"/>
		<path d="M23.909,14.689c-0.287-0.351-2.754-0.655-4.254,0.399c-0.231,0.168-0.192,0.391,0.064,0.359
			c0.854-0.104,2.738-0.327,3.073,0.104c0.335,0.423-0.375,2.203-0.694,2.993c-0.096,0.239,0.112,0.335,0.327,0.152
			C23.829,17.515,24.196,15.048,23.909,14.689z"/>
		<path d="M21.315,16.19c-2.945,1.245-6.146,1.852-9.06,1.852c-4.318,0-8.493-1.189-11.877-3.153
			c-0.295-0.176-0.519,0.128-0.271,0.351c3.129,2.826,7.272,4.526,11.869,4.526c3.281,0,7.096-1.03,9.722-2.969
			C22.129,16.477,21.754,15.99,21.315,16.19z"/>
	</g>
</g>
</svg>